<svg xmlns="http://www.w3.org/2000/svg" width="40" height="40" viewBox="0 0 40 40" fill="none">
  <circle cx="20" cy="20" r="20" fill="#A68454"/>
  <path d="M23.1426 13.9121C23.6499 13.9122 24.1252 13.9761 24.5674 14.1055H24.5664C25.0164 14.2356 25.4364 14.4442 25.8252 14.7305C26.216 15.0182 26.5493 15.3782 26.8242 15.8096C27.1008 16.2435 27.3149 16.7779 27.4688 17.4092H27.4678C27.6275 18.0379 27.707 18.7403 27.707 19.5156V19.5469C27.707 20.4977 27.5805 21.3729 27.3252 22.1709C27.0708 22.966 26.7265 23.63 26.29 24.1582L26.2891 24.1592C25.8551 24.6789 25.3545 25.0822 24.7881 25.3682L24.7891 25.3691C24.2267 25.6557 23.6327 25.7988 23.0098 25.7988H22.9316C22.3826 25.7988 21.8819 25.7296 21.4326 25.5889C20.9869 25.4492 20.6187 25.2616 20.334 25.0215L20.3311 25.0195C20.0581 24.7793 19.8455 24.5117 19.6953 24.2168C19.5442 23.9201 19.4678 23.6077 19.4678 23.2812C19.4678 23.1215 19.496 22.9766 19.5625 22.8555C19.6135 22.7626 19.6846 22.6887 19.7725 22.6348L19.8662 22.5869C19.9723 22.5422 20.0826 22.5242 20.1914 22.5479C20.3016 22.5719 20.3937 22.6353 20.4678 22.7227H20.4668C20.5728 22.8436 20.6211 22.9948 20.6211 23.1641C20.6211 23.9055 20.828 24.4485 21.2207 24.8184L21.3799 24.9482C21.7706 25.2333 22.2995 25.3876 22.9805 25.3965H23.0107C23.5222 25.4014 23.9969 25.2845 24.4375 25.0469C24.8796 24.8084 25.2702 24.4648 25.6074 24.0117C25.9422 23.562 26.208 22.9814 26.4023 22.2656L26.4033 22.2646C26.6021 21.551 26.7021 20.7467 26.7021 19.8516V19.8271C26.4716 20.3453 26.1258 20.8175 25.666 21.2432C24.9393 21.916 24.1196 22.273 23.21 22.3057L23.2109 22.3066C22.4082 22.3388 21.6725 22.2001 21.0078 21.8867C20.3417 21.5726 19.8087 21.1051 19.4131 20.4873V20.4863C19.0215 19.8609 18.8271 19.1424 18.8271 18.3359C18.8271 17.5101 19.0155 16.7582 19.3936 16.083V16.082C19.7762 15.4031 20.2979 14.8709 20.957 14.4873C21.6166 14.1034 22.3464 13.9121 23.1426 13.9121ZM15.8564 13.8496V25.1152H16.5645C16.6174 25.1152 16.7012 25.1311 16.7529 25.207L16.7559 25.2061C16.759 25.2103 16.7607 25.216 16.7637 25.2207C16.7654 25.2238 16.7689 25.2262 16.7705 25.2295H16.7686C16.7842 25.2566 16.7979 25.2891 16.7979 25.3281C16.7979 25.3668 16.784 25.3988 16.7686 25.4258L16.7705 25.4268C16.769 25.4298 16.7653 25.4317 16.7637 25.4346C16.7605 25.4395 16.7592 25.4458 16.7559 25.4502L16.7529 25.4482C16.7012 25.5248 16.6176 25.541 16.5645 25.541H13.8145C13.7719 25.541 13.7122 25.5318 13.6621 25.4873C13.6086 25.4397 13.5938 25.3771 13.5938 25.3281C13.5938 25.2792 13.6086 25.2166 13.6621 25.1689C13.7122 25.1245 13.7719 25.1153 13.8145 25.1152H14.6875V15.0244C14.3764 15.171 14.0951 15.252 13.8457 15.252C13.7247 15.2519 13.6086 15.2315 13.5166 15.1709C13.4177 15.1056 13.3647 15.0061 13.3525 14.8916C13.3458 14.831 13.3483 14.7659 13.3721 14.7051C13.395 14.6466 13.4355 14.5999 13.4902 14.5693H13.4893C13.5164 14.5513 13.5742 14.5245 13.6426 14.542L13.6436 14.54C14.1363 14.6445 14.5699 14.6206 14.9492 14.4766V14.4756C15.355 14.3234 15.4766 14.1532 15.4766 14V13.8496H15.8564ZM23.1426 14.3066C22.677 14.3066 22.2506 14.4136 21.8623 14.625H21.8613C21.47 14.833 21.1411 15.1181 20.873 15.4805C20.6083 15.8401 20.399 16.2647 20.2471 16.7559L20.2461 16.7549C20.0997 17.245 20.0273 17.7616 20.0273 18.3047C20.0273 19.0254 20.159 19.6618 20.4189 20.2168C20.6783 20.7703 21.0506 21.1983 21.5352 21.5049H21.5342C22.021 21.8047 22.5838 21.942 23.2285 21.9121C23.6526 21.8924 24.0608 21.7761 24.4531 21.5625C24.8483 21.3474 25.1848 21.0731 25.4639 20.7393C25.7448 20.4032 25.9711 20.0213 26.1426 19.5928L26.1436 19.5908C26.3188 19.165 26.4079 18.7417 26.4131 18.3203V18.1562C26.4131 17.0938 26.1479 16.2192 25.626 15.5225L25.5176 15.3848C24.9286 14.6672 24.1423 14.3068 23.1426 14.3066Z" fill="white" stroke="white" stroke-width="0.301639"/>
</svg>
