<svg width="61" height="60" viewBox="0 0 61 60" fill="none" xmlns="http://www.w3.org/2000/svg">
<circle cx="30.5" cy="30" r="30" fill="#A68454"/>
<mask id="path-2-outside-1_282_215" maskUnits="userSpaceOnUse" x="19.7" y="20" width="23" height="19" fill="black">
<rect fill="white" x="19.7" y="20" width="23" height="19"/>
<path d="M20.9995 22.5664C20.6792 22.5664 20.5074 22.4531 20.4839 22.2266C20.4683 22.0859 20.5034 21.9961 20.5894 21.957C20.6128 21.9414 20.6324 21.9375 20.648 21.9453C21.4214 22.1094 22.1167 22.0742 22.7339 21.8398C23.3589 21.6055 23.6714 21.2969 23.6714 20.9141H23.7886V37.6367C23.7886 37.7539 23.8433 37.8125 23.9527 37.8125H25.0777C25.1324 37.8125 25.1675 37.8281 25.1831 37.8594C25.2066 37.8906 25.2066 37.9219 25.1831 37.9531C25.1675 37.9844 25.1324 38 25.0777 38H20.9527C20.8824 38 20.8472 37.9688 20.8472 37.9062C20.8472 37.8438 20.8824 37.8125 20.9527 37.8125H22.3238C22.4331 37.8125 22.4878 37.7539 22.4878 37.6367V22.0859C21.9019 22.4062 21.4058 22.5664 20.9995 22.5664ZM35.0372 33.1484C33.8653 33.1953 32.7989 32.9922 31.838 32.5391C30.877 32.0859 30.1114 31.4141 29.5411 30.5234C28.9786 29.625 28.6974 28.5898 28.6974 27.418C28.6974 26.2148 28.9708 25.125 29.5177 24.1484C30.0724 23.1641 30.8263 22.3945 31.7794 21.8398C32.7325 21.2852 33.7872 21.0078 34.9434 21.0078C35.6856 21.0078 36.377 21.1016 37.0177 21.2891C37.6661 21.4766 38.2716 21.7773 38.8341 22.1914C39.3966 22.6055 39.877 23.125 40.2755 23.75C40.6739 24.375 40.9864 25.1523 41.213 26.082C41.4474 27.0039 41.5645 28.0391 41.5645 29.1875V29.2344C41.5645 30.6406 41.377 31.9297 41.002 33.1016C40.627 34.2734 40.1231 35.2422 39.4903 36.0078C38.8575 36.7656 38.1309 37.3516 37.3106 37.7656C36.4981 38.1797 35.6427 38.3867 34.7442 38.3867H34.627C33.8224 38.3867 33.0958 38.2852 32.4474 38.082C31.7989 37.8789 31.2755 37.6094 30.877 37.2734C30.4864 36.9297 30.1856 36.5508 29.9747 36.1367C29.7638 35.7227 29.6583 35.2891 29.6583 34.8359C29.6583 34.4062 29.8106 34.1289 30.1153 34.0039C30.3731 33.8945 30.588 33.9414 30.7599 34.1445C30.877 34.2773 30.9356 34.4492 30.9356 34.6602C30.9356 35.8164 31.2599 36.6992 31.9083 37.3086C32.5645 37.9102 33.4942 38.2188 34.6974 38.2344H34.7442C35.5489 38.2422 36.2989 38.0586 36.9942 37.6836C37.6895 37.3086 38.2989 36.7695 38.8224 36.0664C39.3458 35.3633 39.7559 34.4648 40.0528 33.3711C40.3575 32.2773 40.5099 31.0508 40.5099 29.6914V29.4336C40.5099 29.3477 40.5059 29.1523 40.4981 28.8477C40.4903 28.543 40.4864 28.3281 40.4864 28.2031C40.2677 29.5 39.6309 30.6367 38.5763 31.6133C37.5216 32.5898 36.3419 33.1016 35.0372 33.1484ZM35.0841 33.0078C35.7559 32.9766 36.4005 32.793 37.0177 32.457C37.6349 32.1211 38.1622 31.6914 38.5997 31.168C39.0372 30.6445 39.3888 30.0508 39.6544 29.3867C39.9278 28.7227 40.0684 28.0586 40.0763 27.3945V27.1484C40.0763 25.4062 39.6114 23.9727 38.6817 22.8477C37.752 21.7148 36.5059 21.1484 34.9434 21.1484C34.2091 21.1484 33.5333 21.3164 32.9161 21.6523C32.2989 21.9805 31.7794 22.4297 31.3575 23C30.9434 23.5625 30.6192 24.2227 30.3849 24.9805C30.1583 25.7383 30.045 26.5352 30.045 27.3711C30.045 28.4805 30.2481 29.4688 30.6544 30.3359C31.0606 31.2031 31.6466 31.8789 32.4122 32.3633C33.1856 32.8398 34.0763 33.0547 35.0841 33.0078Z"/>
</mask>
<path d="M20.9995 22.5664C20.6792 22.5664 20.5074 22.4531 20.4839 22.2266C20.4683 22.0859 20.5034 21.9961 20.5894 21.957C20.6128 21.9414 20.6324 21.9375 20.648 21.9453C21.4214 22.1094 22.1167 22.0742 22.7339 21.8398C23.3589 21.6055 23.6714 21.2969 23.6714 20.9141H23.7886V37.6367C23.7886 37.7539 23.8433 37.8125 23.9527 37.8125H25.0777C25.1324 37.8125 25.1675 37.8281 25.1831 37.8594C25.2066 37.8906 25.2066 37.9219 25.1831 37.9531C25.1675 37.9844 25.1324 38 25.0777 38H20.9527C20.8824 38 20.8472 37.9688 20.8472 37.9062C20.8472 37.8438 20.8824 37.8125 20.9527 37.8125H22.3238C22.4331 37.8125 22.4878 37.7539 22.4878 37.6367V22.0859C21.9019 22.4062 21.4058 22.5664 20.9995 22.5664ZM35.0372 33.1484C33.8653 33.1953 32.7989 32.9922 31.838 32.5391C30.877 32.0859 30.1114 31.4141 29.5411 30.5234C28.9786 29.625 28.6974 28.5898 28.6974 27.418C28.6974 26.2148 28.9708 25.125 29.5177 24.1484C30.0724 23.1641 30.8263 22.3945 31.7794 21.8398C32.7325 21.2852 33.7872 21.0078 34.9434 21.0078C35.6856 21.0078 36.377 21.1016 37.0177 21.2891C37.6661 21.4766 38.2716 21.7773 38.8341 22.1914C39.3966 22.6055 39.877 23.125 40.2755 23.75C40.6739 24.375 40.9864 25.1523 41.213 26.082C41.4474 27.0039 41.5645 28.0391 41.5645 29.1875V29.2344C41.5645 30.6406 41.377 31.9297 41.002 33.1016C40.627 34.2734 40.1231 35.2422 39.4903 36.0078C38.8575 36.7656 38.1309 37.3516 37.3106 37.7656C36.4981 38.1797 35.6427 38.3867 34.7442 38.3867H34.627C33.8224 38.3867 33.0958 38.2852 32.4474 38.082C31.7989 37.8789 31.2755 37.6094 30.877 37.2734C30.4864 36.9297 30.1856 36.5508 29.9747 36.1367C29.7638 35.7227 29.6583 35.2891 29.6583 34.8359C29.6583 34.4062 29.8106 34.1289 30.1153 34.0039C30.3731 33.8945 30.588 33.9414 30.7599 34.1445C30.877 34.2773 30.9356 34.4492 30.9356 34.6602C30.9356 35.8164 31.2599 36.6992 31.9083 37.3086C32.5645 37.9102 33.4942 38.2188 34.6974 38.2344H34.7442C35.5489 38.2422 36.2989 38.0586 36.9942 37.6836C37.6895 37.3086 38.2989 36.7695 38.8224 36.0664C39.3458 35.3633 39.7559 34.4648 40.0528 33.3711C40.3575 32.2773 40.5099 31.0508 40.5099 29.6914V29.4336C40.5099 29.3477 40.5059 29.1523 40.4981 28.8477C40.4903 28.543 40.4864 28.3281 40.4864 28.2031C40.2677 29.5 39.6309 30.6367 38.5763 31.6133C37.5216 32.5898 36.3419 33.1016 35.0372 33.1484ZM35.0841 33.0078C35.7559 32.9766 36.4005 32.793 37.0177 32.457C37.6349 32.1211 38.1622 31.6914 38.5997 31.168C39.0372 30.6445 39.3888 30.0508 39.6544 29.3867C39.9278 28.7227 40.0684 28.0586 40.0763 27.3945V27.1484C40.0763 25.4062 39.6114 23.9727 38.6817 22.8477C37.752 21.7148 36.5059 21.1484 34.9434 21.1484C34.2091 21.1484 33.5333 21.3164 32.9161 21.6523C32.2989 21.9805 31.7794 22.4297 31.3575 23C30.9434 23.5625 30.6192 24.2227 30.3849 24.9805C30.1583 25.7383 30.045 26.5352 30.045 27.3711C30.045 28.4805 30.2481 29.4688 30.6544 30.3359C31.0606 31.2031 31.6466 31.8789 32.4122 32.3633C33.1856 32.8398 34.0763 33.0547 35.0841 33.0078Z" fill="white"/>
<path d="M20.4839 22.2266L20.8818 22.1854L20.8815 22.1824L20.4839 22.2266ZM20.5894 21.957L20.7549 22.3212L20.7844 22.3078L20.8113 22.2899L20.5894 21.957ZM20.648 21.9453L20.4691 22.3031L20.5149 22.326L20.565 22.3366L20.648 21.9453ZM22.7339 21.8398L22.5935 21.4653L22.5919 21.4659L22.7339 21.8398ZM23.6714 20.9141V20.5141H23.2714V20.9141H23.6714ZM23.7886 20.9141H24.1886V20.5141H23.7886V20.9141ZM25.1831 37.8594L24.8254 38.0383L24.8415 38.0705L24.8631 38.0994L25.1831 37.8594ZM25.1831 37.9531L24.8631 37.7131L24.8415 37.742L24.8254 37.7742L25.1831 37.9531ZM22.4878 22.0859H22.8878V21.4114L22.296 21.735L22.4878 22.0859ZM20.9995 22.5664V22.1664C20.942 22.1664 20.9023 22.1612 20.8769 22.1554C20.8516 22.1495 20.8458 22.1444 20.8505 22.1475C20.857 22.1517 20.8678 22.1615 20.8761 22.1759C20.8838 22.1893 20.8828 22.1953 20.8818 22.1854L20.4839 22.2266L20.086 22.2677C20.1086 22.4859 20.2127 22.6852 20.4103 22.8154C20.5885 22.9329 20.8013 22.9664 20.9995 22.9664V22.5664ZM20.4839 22.2266L20.8815 22.1824C20.8777 22.1486 20.8855 22.1625 20.8711 22.1995C20.863 22.2201 20.8488 22.2454 20.826 22.2697C20.8031 22.2941 20.7777 22.3108 20.7549 22.3212L20.5894 21.957L20.4239 21.5929C20.2838 21.6565 20.1807 21.7685 20.1261 21.908C20.0764 22.0348 20.0745 22.1639 20.0864 22.2707L20.4839 22.2266ZM20.5894 21.957L20.8113 22.2899C20.7962 22.2999 20.7581 22.323 20.7001 22.3346C20.6354 22.3475 20.5518 22.3444 20.4691 22.3031L20.648 21.9453L20.8269 21.5875C20.6172 21.4827 20.4331 21.5805 20.3675 21.6242L20.5894 21.957ZM20.648 21.9453L20.565 22.3366C21.3985 22.5134 22.1738 22.4804 22.8759 22.2138L22.7339 21.8398L22.5919 21.4659C22.0596 21.668 21.4443 21.7053 20.731 21.554L20.648 21.9453ZM22.7339 21.8398L22.8744 22.2144C23.5283 21.9692 24.0714 21.5673 24.0714 20.9141H23.6714H23.2714C23.2714 21.0264 23.1896 21.2418 22.5935 21.4653L22.7339 21.8398ZM23.6714 20.9141V21.3141H23.7886V20.9141V20.5141H23.6714V20.9141ZM23.7886 20.9141H23.3886V37.6367H23.7886H24.1886V20.9141H23.7886ZM23.7886 37.6367H23.3886C23.3886 37.7504 23.4146 37.9101 23.5372 38.0415C23.6647 38.1781 23.829 38.2125 23.9527 38.2125V37.8125V37.4125C23.967 37.4125 24.0493 37.4176 24.122 37.4956C24.1551 37.5311 24.1724 37.5679 24.1808 37.5948C24.1887 37.6201 24.1886 37.6362 24.1886 37.6367H23.7886ZM23.9527 37.8125V38.2125H25.0777V37.8125V37.4125H23.9527V37.8125ZM25.0777 37.8125V38.2125C25.0709 38.2125 25.033 38.2121 24.9826 38.1897C24.9245 38.1639 24.8633 38.1142 24.8254 38.0383L25.1831 37.8594L25.5409 37.6805C25.4238 37.4464 25.19 37.4125 25.0777 37.4125V37.8125ZM25.1831 37.8594L24.8631 38.0994C24.8361 38.0633 24.8007 37.9968 24.8007 37.9062C24.8007 37.8157 24.8361 37.7492 24.8631 37.7131L25.1831 37.9531L25.5031 38.1931C25.5536 38.1258 25.6007 38.0281 25.6007 37.9062C25.6007 37.7844 25.5536 37.6867 25.5031 37.6194L25.1831 37.8594ZM25.1831 37.9531L24.8254 37.7742C24.8633 37.6983 24.9245 37.6486 24.9826 37.6228C25.033 37.6004 25.0709 37.6 25.0777 37.6V38V38.4C25.19 38.4 25.4238 38.3661 25.5409 38.132L25.1831 37.9531ZM25.0777 38V37.6H20.9527V38V38.4H25.0777V38ZM20.9527 38V37.6C20.9683 37.6 21.0548 37.6025 21.1393 37.6776C21.2328 37.7607 21.2472 37.8628 21.2472 37.9062H20.8472H20.4472C20.4472 38.0122 20.4792 38.1612 20.6078 38.2755C20.7275 38.3819 20.8667 38.4 20.9527 38.4V38ZM20.8472 37.9062H21.2472C21.2472 37.9497 21.2328 38.0518 21.1393 38.1349C21.0548 38.21 20.9683 38.2125 20.9527 38.2125V37.8125V37.4125C20.8667 37.4125 20.7275 37.4306 20.6078 37.537C20.4792 37.6513 20.4472 37.8003 20.4472 37.9062H20.8472ZM20.9527 37.8125V38.2125H22.3238V37.8125V37.4125H20.9527V37.8125ZM22.3238 37.8125V38.2125C22.4474 38.2125 22.6118 38.1781 22.7392 38.0415C22.8619 37.9101 22.8878 37.7504 22.8878 37.6367H22.4878H22.0878C22.0878 37.6362 22.0877 37.6201 22.0956 37.5948C22.104 37.5679 22.1213 37.5311 22.1544 37.4956C22.2272 37.4176 22.3095 37.4125 22.3238 37.4125V37.8125ZM22.4878 37.6367H22.8878V22.0859H22.4878H22.0878V37.6367H22.4878ZM22.4878 22.0859L22.296 21.735C21.7352 22.0415 21.3087 22.1664 20.9995 22.1664V22.5664V22.9664C21.5029 22.9664 22.0686 22.771 22.6797 22.4369L22.4878 22.0859ZM35.0372 33.1484L35.0228 32.7487L35.0212 32.7488L35.0372 33.1484ZM29.5411 30.5234L29.2021 30.7357L29.2043 30.7391L29.5411 30.5234ZM29.5177 24.1484L29.1692 23.9521L29.1687 23.953L29.5177 24.1484ZM37.0177 21.2891L36.9053 21.673L36.9066 21.6733L37.0177 21.2891ZM41.213 26.082L40.8243 26.1767L40.8253 26.1806L41.213 26.082ZM39.4903 36.0078L39.7974 36.2642L39.7986 36.2626L39.4903 36.0078ZM37.3106 37.7656L37.1304 37.4085L37.129 37.4092L37.3106 37.7656ZM30.877 37.2734L30.6127 37.5738L30.6192 37.5792L30.877 37.2734ZM30.1153 34.0039L30.2672 34.374L30.2715 34.3721L30.1153 34.0039ZM30.7599 34.1445L30.4544 34.403L30.4599 34.4092L30.7599 34.1445ZM31.9083 37.3086L31.6343 37.6001L31.638 37.6035L31.9083 37.3086ZM34.6974 38.2344L34.6922 38.6344H34.6974V38.2344ZM34.7442 38.2344L34.7481 37.8344H34.7442V38.2344ZM40.0528 33.3711L39.6675 33.2638L39.6668 33.2663L40.0528 33.3711ZM40.4864 28.2031H40.8864L40.092 28.1366L40.4864 28.2031ZM39.6544 29.3867L39.2845 29.2344L39.283 29.2382L39.6544 29.3867ZM40.0763 27.3945L40.4763 27.3992V27.3945H40.0763ZM38.6817 22.8477L38.3725 23.1014L38.3734 23.1025L38.6817 22.8477ZM32.9161 21.6523L33.1039 22.0055L33.1073 22.0037L32.9161 21.6523ZM31.3575 23L31.0359 22.7621L31.0354 22.7629L31.3575 23ZM30.3849 24.9805L30.0027 24.8623L30.0016 24.8659L30.3849 24.9805ZM32.4122 32.3633L32.1983 32.7013L32.2024 32.7038L32.4122 32.3633ZM35.0372 33.1484L35.0212 32.7488C33.9069 32.7933 32.9054 32.6002 32.0086 32.1773L31.838 32.5391L31.6674 32.9009C32.6924 33.3842 33.8238 33.5973 35.0532 33.5481L35.0372 33.1484ZM31.838 32.5391L32.0086 32.1773C31.1154 31.7561 30.4075 31.1347 29.878 30.3077L29.5411 30.5234L29.2043 30.7391C29.8153 31.6934 30.6387 32.4158 31.6674 32.9009L31.838 32.5391ZM29.5411 30.5234L29.8801 30.3112C29.3616 29.483 29.0974 28.523 29.0974 27.418H28.6974H28.2974C28.2974 28.6567 28.5956 29.767 29.2021 30.7357L29.5411 30.5234ZM28.6974 27.418H29.0974C29.0974 26.278 29.3557 25.2563 29.8667 24.3439L29.5177 24.1484L29.1687 23.953C28.5859 24.9937 28.2974 26.1517 28.2974 27.418H28.6974ZM29.5177 24.1484L29.8662 24.3448C30.3868 23.4208 31.0905 22.7035 31.9806 22.1856L31.7794 21.8398L31.5782 21.4941C30.562 22.0855 29.7579 22.9073 29.1692 23.9521L29.5177 24.1484ZM31.7794 21.8398L31.9806 22.1856C32.8696 21.6682 33.8543 21.4078 34.9434 21.4078V21.0078V20.6078C33.7201 20.6078 32.5954 20.9021 31.5782 21.4941L31.7794 21.8398ZM34.9434 21.0078V21.4078C35.6518 21.4078 36.305 21.4973 36.9053 21.673L37.0177 21.2891L37.13 20.9052C36.4491 20.7059 35.7195 20.6078 34.9434 20.6078V21.0078ZM37.0177 21.2891L36.9066 21.6733C37.5081 21.8473 38.0711 22.1265 38.5969 22.5135L38.8341 22.1914L39.0712 21.8693C38.472 21.4282 37.8241 21.1059 37.1288 20.9048L37.0177 21.2891ZM38.8341 22.1914L38.5969 22.5135C39.1174 22.8966 39.5646 23.379 39.9382 23.965L40.2755 23.75L40.6128 23.535C40.1895 22.871 39.6758 22.3143 39.0712 21.8693L38.8341 22.1914ZM40.2755 23.75L39.9382 23.965C40.3073 24.544 40.6053 25.2779 40.8244 26.1767L41.213 26.082L41.6016 25.9873C41.3675 25.0267 41.0405 24.206 40.6128 23.535L40.2755 23.75ZM41.213 26.082L40.8253 26.1806C41.05 27.0644 41.1645 28.0657 41.1645 29.1875H41.5645H41.9645C41.9645 28.0124 41.8447 26.9434 41.6006 25.9835L41.213 26.082ZM41.5645 29.1875H41.1645V29.2344H41.5645H41.9645V29.1875H41.5645ZM41.5645 29.2344H41.1645C41.1645 30.6051 40.9818 31.8524 40.6211 32.9797L41.002 33.1016L41.383 33.2235C41.7723 32.007 41.9645 30.6762 41.9645 29.2344H41.5645ZM41.002 33.1016L40.6211 32.9797C40.258 34.1142 39.7756 35.0348 39.182 35.753L39.4903 36.0078L39.7986 36.2626C40.4707 35.4496 40.9961 34.4327 41.383 33.2235L41.002 33.1016ZM39.4903 36.0078L39.1833 35.7514C38.5828 36.4705 37.8985 37.0208 37.1304 37.4085L37.3106 37.7656L37.4909 38.1227C38.3634 37.6823 39.1322 37.0607 39.7974 36.2642L39.4903 36.0078ZM37.3106 37.7656L37.129 37.4092C36.3719 37.7951 35.5786 37.9867 34.7442 37.9867V38.3867V38.7867C35.7068 38.7867 36.6244 38.5643 37.4923 38.122L37.3106 37.7656ZM34.7442 38.3867V37.9867H34.627V38.3867V38.7867H34.7442V38.3867ZM34.627 38.3867V37.9867C33.8557 37.9867 33.1703 37.8893 32.5669 37.7003L32.4474 38.082L32.3278 38.4637C33.0213 38.681 33.7891 38.7867 34.627 38.7867V38.3867ZM32.4474 38.082L32.5669 37.7003C31.9545 37.5085 31.4824 37.2607 31.1349 36.9676L30.877 37.2734L30.6192 37.5792C31.0685 37.9581 31.6433 38.2493 32.3278 38.4637L32.4474 38.082ZM30.877 37.2734L31.1413 36.9732C30.7841 36.6588 30.5165 36.3191 30.3311 35.9551L29.9747 36.1367L29.6183 36.3183C29.8548 36.7825 30.1887 37.2006 30.6128 37.5737L30.877 37.2734ZM29.9747 36.1367L30.3311 35.9551C30.1481 35.5958 30.0583 35.2243 30.0583 34.8359H29.6583H29.2583C29.2583 35.3538 29.3795 35.8495 29.6183 36.3183L29.9747 36.1367ZM29.6583 34.8359H30.0583C30.0583 34.6654 30.0889 34.5605 30.1231 34.4982C30.1534 34.4432 30.1957 34.4033 30.2671 34.374L30.1153 34.0039L29.9635 33.6338C29.7303 33.7295 29.5441 33.8908 29.422 34.1131C29.3038 34.3281 29.2583 34.5768 29.2583 34.8359H29.6583ZM30.1153 34.0039L30.2715 34.3721C30.3451 34.3409 30.3777 34.3463 30.3846 34.3478C30.3892 34.3488 30.4131 34.354 30.4545 34.4029L30.7599 34.1445L31.0652 33.8862C30.9347 33.732 30.7653 33.6121 30.5551 33.5662C30.3471 33.5208 30.1433 33.5575 29.9591 33.6357L30.1153 34.0039ZM30.7599 34.1445L30.4599 34.4092C30.5007 34.4554 30.5356 34.5271 30.5356 34.6602H30.9356H31.3356C31.3356 34.3714 31.2533 34.0992 31.0598 33.8799L30.7599 34.1445ZM30.9356 34.6602H30.5356C30.5356 35.892 30.8832 36.8942 31.6344 37.6001L31.9083 37.3086L32.1822 37.0171C31.6365 36.5043 31.3356 35.7408 31.3356 34.6602H30.9356ZM31.9083 37.3086L31.638 37.6035C32.3889 38.2918 33.4257 38.6179 34.6922 38.6343L34.6974 38.2344L34.7025 37.8344C33.5628 37.8196 32.7402 37.5286 32.1786 37.0137L31.9083 37.3086ZM34.6974 38.2344V38.6344H34.7442V38.2344V37.8344H34.6974V38.2344ZM34.7442 38.2344L34.7403 38.6344C35.6113 38.6428 36.4281 38.4434 37.1841 38.0357L36.9942 37.6836L36.8044 37.3315C36.1697 37.6738 35.4865 37.8416 34.7481 37.8344L34.7442 38.2344ZM36.9942 37.6836L37.1841 38.0357C37.9362 37.63 38.5888 37.0501 39.1432 36.3053L38.8224 36.0664L38.5015 35.8275C38.0091 36.489 37.4429 36.9872 36.8044 37.3315L36.9942 37.6836ZM38.8224 36.0664L39.1432 36.3053C39.7039 35.5521 40.1325 34.6045 40.4389 33.4759L40.0528 33.3711L39.6668 33.2663C39.3794 34.3252 38.9877 35.1745 38.5015 35.8275L38.8224 36.0664ZM40.0528 33.3711L40.4382 33.4784C40.7543 32.3437 40.9099 31.0802 40.9099 29.6914H40.5099H40.1099C40.1099 31.0214 39.9608 32.211 39.6675 33.2638L40.0528 33.3711ZM40.5099 29.6914H40.9099V29.4336H40.5099H40.1099V29.6914H40.5099ZM40.5099 29.4336H40.9099C40.9099 29.3415 40.9058 29.1406 40.898 28.8374L40.4981 28.8477L40.0983 28.8579C40.1061 29.1641 40.1099 29.3538 40.1099 29.4336H40.5099ZM40.4981 28.8477L40.898 28.8374C40.8902 28.5327 40.8864 28.3224 40.8864 28.2031H40.4864H40.0864C40.0864 28.3338 40.0905 28.5533 40.0983 28.8579L40.4981 28.8477ZM40.4864 28.2031L40.092 28.1366C39.8893 29.3381 39.3007 30.3973 38.3045 31.3198L38.5763 31.6133L38.848 31.9068C39.9612 30.8761 40.646 29.6619 40.8808 28.2697L40.4864 28.2031ZM38.5763 31.6133L38.3045 31.3198C37.3125 32.2383 36.2219 32.7056 35.0228 32.7487L35.0372 33.1484L35.0516 33.5482C36.4619 33.4975 37.7307 32.9414 38.848 31.9068L38.5763 31.6133ZM35.0841 33.0078L35.1027 33.4074C35.8377 33.3732 36.541 33.1719 37.2089 32.8084L37.0177 32.457L36.8264 32.1057C36.26 32.414 35.6742 32.5799 35.0655 32.6082L35.0841 33.0078ZM37.0177 32.457L37.2089 32.8084C37.8689 32.4491 38.4359 31.9877 38.9066 31.4245L38.5997 31.168L38.2928 30.9114C37.8885 31.3951 37.4008 31.7931 36.8264 32.1057L37.0177 32.457ZM38.5997 31.168L38.9066 31.4245C39.3724 30.8672 39.7453 30.2366 40.0258 29.5353L39.6544 29.3867L39.283 29.2382C39.0323 29.865 38.7019 30.4219 38.2928 30.9114L38.5997 31.168ZM39.6544 29.3867L40.0243 29.539C40.3154 28.8319 40.4678 28.118 40.4762 27.3992L40.0763 27.3945L39.6763 27.3898C39.6691 27.9992 39.5402 28.6134 39.2845 29.2344L39.6544 29.3867ZM40.0763 27.3945H40.4763V27.1484H40.0763H39.6763V27.3945H40.0763ZM40.0763 27.1484H40.4763C40.4763 25.332 39.99 23.8028 38.9901 22.5928L38.6817 22.8477L38.3734 23.1025C39.2329 24.1425 39.6763 25.4805 39.6763 27.1484H40.0763ZM38.6817 22.8477L38.9909 22.5939C37.9797 21.3617 36.6166 20.7484 34.9434 20.7484V21.1484V21.5484C36.3953 21.5484 37.5244 22.068 38.3725 23.1014L38.6817 22.8477ZM34.9434 21.1484V20.7484C34.1454 20.7484 33.4034 20.9317 32.7249 21.301L32.9161 21.6523L33.1073 22.0037C33.6632 21.7011 34.2728 21.5484 34.9434 21.5484V21.1484ZM32.9161 21.6523L32.7283 21.2992C32.0577 21.6557 31.4927 22.1446 31.0359 22.7621L31.3575 23L31.6791 23.2379C32.0661 22.7148 32.5401 22.3052 33.1039 22.0055L32.9161 21.6523ZM31.3575 23L31.0354 22.7629C30.5915 23.3659 30.2485 24.0675 30.0027 24.8623L30.3849 24.9805L30.767 25.0987C30.9899 24.3778 31.2954 23.7591 31.6796 23.2371L31.3575 23ZM30.3849 24.9805L30.0016 24.8659C29.7633 25.6629 29.645 26.4986 29.645 27.3711H30.045H30.445C30.445 26.5717 30.5533 25.8136 30.7681 25.095L30.3849 24.9805ZM30.045 27.3711H29.645C29.645 28.5299 29.8574 29.5775 30.2922 30.5056L30.6544 30.3359L31.0166 30.1662C30.6389 29.36 30.445 28.4311 30.445 27.3711H30.045ZM30.6544 30.3359L30.2922 30.5056C30.7289 31.4378 31.3645 32.1738 32.1983 32.7013L32.4122 32.3633L32.6261 32.0252C31.9287 31.5841 31.3924 30.9684 31.0166 30.1662L30.6544 30.3359ZM32.4122 32.3633L32.2024 32.7038C33.0518 33.2272 34.0238 33.4576 35.1027 33.4074L35.0841 33.0078L35.0655 32.6082C34.1288 32.6518 33.3195 32.4525 32.622 32.0227L32.4122 32.3633Z" fill="white" mask="url(#path-2-outside-1_282_215)"/>
</svg>
