<svg preserveAspectRatio="none" width="100%" height="100%" overflow="visible" style="display: block;" viewBox="0 0 757.812 74.707" fill="none" xmlns="http://www.w3.org/2000/svg">
<path id="Names" d="M17.3828 1.41602C17.6432 1.41602 17.7734 1.54622 17.7734 1.80664C17.7734 2.06706 17.6432 2.19727 17.3828 2.19727H12.9883C12.3047 2.19727 11.9629 2.53906 11.9629 3.22266V69.3848L53.1738 1.41602H64.8926C65.1855 1.41602 65.332 1.54622 65.332 1.80664C65.332 2.06706 65.1855 2.19727 64.8926 2.19727H60.3027C59.6191 2.19727 59.2773 2.53906 59.2773 3.22266V68.9941C59.2773 69.6777 59.6191 70.0195 60.3027 70.0195H64.8926C65.1855 70.0195 65.332 70.1497 65.332 70.4102C65.332 70.6706 65.1855 70.8008 64.8926 70.8008H48.1934C47.9655 70.8008 47.8516 70.6706 47.8516 70.4102C47.8516 70.1497 47.9655 70.0195 48.1934 70.0195H52.5879C53.2389 70.0195 53.5645 69.6777 53.5645 68.9941V2.19727L11.9629 70.8008H0.683594C0.423177 70.8008 0.292969 70.6706 0.292969 70.4102C0.292969 70.1497 0.423177 70.0195 0.683594 70.0195H5.27344C5.95703 70.0195 6.29883 69.6777 6.29883 68.9941V3.22266C6.29883 2.53906 5.95703 2.19727 5.27344 2.19727H0.292969C0.0976562 2.19727 0 2.06706 0 1.80664C0 1.54622 0.0976562 1.41602 0.292969 1.41602H17.3828ZM84.4238 2.19727C84.0332 2.29492 83.8379 2.52279 83.8379 2.88086V69.2871C83.8379 69.7754 84.082 70.0195 84.5703 70.0195H89.8438C90.1367 70.0195 90.2832 70.1497 90.2832 70.4102C90.2832 70.6706 90.1367 70.8008 89.8438 70.8008H72.7539C72.4609 70.8008 72.3145 70.6706 72.3145 70.4102C72.3145 70.1497 72.4609 70.0195 72.7539 70.0195H77.4414C77.8971 70.0195 78.125 69.7754 78.125 69.2871V2.88086C78.125 2.42513 77.8971 2.19727 77.4414 2.19727H72.7539C72.4935 2.19727 72.3633 2.06706 72.3633 1.80664C72.3633 1.54622 72.4935 1.41602 72.7539 1.41602H116.943V15.918H116.162V12.793C116.162 9.70052 115.104 7.16146 112.988 5.17578C110.905 3.1901 107.959 2.19727 104.15 2.19727H84.4238ZM154.883 72.4121C150.618 72.4121 146.663 71.6471 143.018 70.1172C139.404 68.5872 136.214 66.3411 133.447 63.3789C130.68 60.3841 128.516 56.5104 126.953 51.7578C125.391 46.9727 124.609 41.5202 124.609 35.4004C124.609 30.6803 125.163 26.3672 126.27 22.4609C127.376 18.5221 128.89 15.1855 130.811 12.4512C132.731 9.7168 134.993 7.4056 137.598 5.51758C140.202 3.62956 142.985 2.24609 145.947 1.36719C148.942 0.455729 152.083 0 155.371 0H155.469C158.659 0.0651042 161.702 0.569661 164.6 1.51367C167.529 2.45768 170.264 3.88997 172.803 5.81055C175.342 7.73112 177.539 10.0586 179.395 12.793C181.25 15.5273 182.715 18.8314 183.789 22.7051C184.863 26.5462 185.4 30.778 185.4 35.4004C185.4 41.5202 184.603 46.9727 183.008 51.7578C181.445 56.5104 179.281 60.3841 176.514 63.3789C173.747 66.3411 170.54 68.5872 166.895 70.1172C163.281 71.6471 159.342 72.4121 155.078 72.4121H154.883ZM155.078 71.6797C157.878 71.6471 160.465 71.224 162.842 70.4102C165.218 69.5964 167.432 68.278 169.482 66.4551C171.533 64.6322 173.275 62.3372 174.707 59.5703C176.139 56.8034 177.262 53.3854 178.076 49.3164C178.89 45.2148 179.297 40.5762 179.297 35.4004C179.297 30.6152 178.89 26.3021 178.076 22.4609C177.262 18.5872 176.139 15.332 174.707 12.6953C173.307 10.0586 171.598 7.84505 169.58 6.05469C167.562 4.23177 165.381 2.89714 163.037 2.05078C160.726 1.20443 158.236 0.748698 155.566 0.683594H154.395C151.009 0.78125 147.917 1.51367 145.117 2.88086C142.318 4.21549 139.827 6.23372 137.646 8.93555C135.465 11.6374 133.757 15.2344 132.52 19.7266C131.315 24.2188 130.713 29.4434 130.713 35.4004C130.713 40.5762 131.12 45.2148 131.934 49.3164C132.747 53.3854 133.87 56.8034 135.303 59.5703C136.735 62.3372 138.46 64.6322 140.479 66.4551C142.529 68.278 144.743 69.5964 147.119 70.4102C149.495 71.224 152.083 71.6471 154.883 71.6797H155.078ZM192.676 70.8008C192.513 70.8008 192.399 70.7357 192.334 70.6055C192.269 70.4753 192.253 70.3451 192.285 70.2148C192.35 70.0846 192.48 70.0195 192.676 70.0195H197.07C197.754 70.0195 198.096 69.6777 198.096 68.9941V3.22266C198.096 2.53906 197.754 2.19727 197.07 2.19727H192.676C192.383 2.19727 192.236 2.06706 192.236 1.80664C192.236 1.54622 192.383 1.41602 192.676 1.41602H216.748C219.059 1.41602 221.338 1.64388 223.584 2.09961C225.83 2.52279 228.011 3.22266 230.127 4.19922C232.243 5.17578 234.098 6.36393 235.693 7.76367C237.321 9.16341 238.623 10.9212 239.6 13.0371C240.576 15.153 241.064 17.4805 241.064 20.0195C241.064 22.5911 240.609 24.9674 239.697 27.1484C238.786 29.3294 237.549 31.2012 235.986 32.7637C234.424 34.2936 232.601 35.612 230.518 36.7188C228.467 37.793 226.286 38.5905 223.975 39.1113C221.663 39.6322 219.303 39.8926 216.895 39.8926H203.76V68.9941C203.76 69.6777 204.102 70.0195 204.785 70.0195H209.375C209.57 70.0195 209.668 70.1497 209.668 70.4102C209.668 70.6706 209.57 70.8008 209.375 70.8008H192.676ZM235.156 20.0195C235.156 16.7969 234.635 13.9974 233.594 11.6211C232.585 9.21224 231.185 7.35677 229.395 6.05469C227.604 4.72005 225.651 3.74349 223.535 3.125C221.452 2.50651 219.189 2.19727 216.748 2.19727H204.785C204.102 2.19727 203.76 2.53906 203.76 3.22266V39.1113H216.895C219.466 39.0788 221.826 38.7044 223.975 37.9883C226.123 37.2396 228.044 36.1328 229.736 34.668C231.462 33.2031 232.796 31.2174 233.74 28.7109C234.684 26.2044 235.156 23.3073 235.156 20.0195ZM268.115 31.5918H256.25C256.055 31.5918 255.876 31.6732 255.713 31.8359C255.583 31.9987 255.518 32.1615 255.518 32.3242V69.2871C255.518 69.7754 255.762 70.0195 256.25 70.0195H269.434C272.038 70.0195 274.414 69.6452 276.562 68.8965C278.711 68.1152 280.648 66.9434 282.373 65.3809C284.098 63.8184 285.433 61.6862 286.377 58.9844C287.354 56.2826 287.842 53.125 287.842 49.5117C287.842 45.9961 287.435 43.0664 286.621 40.7227C285.807 38.3789 284.538 36.5397 282.812 35.2051C281.087 33.8704 279.053 32.9427 276.709 32.4219C274.398 31.8685 271.533 31.5918 268.115 31.5918ZM245.605 1.41602H259.912C260.205 1.41602 260.352 1.57878 260.352 1.9043C260.352 2.09961 260.205 2.19727 259.912 2.19727H256.25C255.762 2.19727 255.518 2.42513 255.518 2.88086V30.0781C255.518 30.2734 255.583 30.4525 255.713 30.6152C255.876 30.7454 256.055 30.8105 256.25 30.8105H268.311C285.4 30.8105 293.945 37.0443 293.945 49.5117C293.945 52.8971 293.245 55.9733 291.846 58.7402C290.446 61.5072 288.574 63.7533 286.23 65.4785C283.887 67.2038 281.266 68.5221 278.369 69.4336C275.505 70.3451 272.526 70.8008 269.434 70.8008H244.434C244.173 70.8008 244.043 70.6706 244.043 70.4102C244.043 70.1497 244.173 70.0195 244.434 70.0195H249.121C249.577 70.0195 249.805 69.7754 249.805 69.2871V2.88086C249.805 2.42513 249.577 2.19727 249.121 2.19727H245.605C245.345 2.19727 245.215 2.06706 245.215 1.80664C245.215 1.54622 245.345 1.41602 245.605 1.41602ZM403.516 39.209C403.516 34.1634 402.067 29.9805 399.17 26.6602C396.273 23.3398 392.497 21.6797 387.842 21.6797C383.903 21.6797 380.42 22.8516 377.393 25.1953C374.398 27.5391 372.9 30.4362 372.9 33.8867C372.9 35.9701 372.786 38.151 372.559 40.4297C372.363 42.7083 371.745 45.7357 370.703 49.5117C369.694 53.2878 368.327 56.6243 366.602 59.5215C370.117 64.209 373.779 67.627 377.588 69.7754C381.429 71.9238 385.205 72.998 388.916 72.998C390.413 72.998 391.781 72.6562 393.018 71.9727C394.287 71.3216 395.296 70.4427 396.045 69.3359C396.826 68.2292 397.445 67.1224 397.9 66.0156C398.389 64.9089 398.763 63.7695 399.023 62.5977C399.251 61.4258 399.821 60.7585 400.732 60.5957C401.579 60.4004 402.197 60.7096 402.588 61.5234C402.946 62.2721 402.897 63.1999 402.441 64.3066C401.172 67.3665 398.665 69.8568 394.922 71.7773C391.211 73.7305 387.272 74.707 383.105 74.707C380.306 74.707 377.181 73.7305 373.73 71.7773C370.312 69.8242 367.008 67.0247 363.818 63.3789C358.61 69.5312 351.416 72.6074 342.236 72.6074C339.925 72.6074 337.549 72.168 335.107 71.2891C332.666 70.4102 330.387 69.1895 328.271 67.627C326.188 66.0319 324.479 63.9811 323.145 61.4746C321.81 58.9681 321.143 56.25 321.143 53.3203V53.125C321.143 51.1068 321.517 49.1699 322.266 47.3145C323.047 45.459 323.991 43.8477 325.098 42.4805C326.204 41.1133 327.669 39.7135 329.492 38.2812C331.315 36.8164 332.992 35.5957 334.521 34.6191C336.084 33.6426 337.972 32.487 340.186 31.1523C340.381 31.0547 340.527 30.9733 340.625 30.9082L338.33 27.4902C336.214 24.6257 334.684 22.1029 333.74 19.9219C332.829 17.7409 332.487 15.4948 332.715 13.1836C333.04 9.92839 334.603 7.14518 337.402 4.83398C340.202 2.49023 343.848 1.31836 348.34 1.31836C352.148 1.31836 355.322 2.47396 357.861 4.78516C360.433 7.0638 361.719 9.70052 361.719 12.6953C361.719 13.737 361.572 14.7298 361.279 15.6738C360.986 16.6178 360.612 17.4805 360.156 18.2617C359.733 19.0104 359.131 19.7754 358.35 20.5566C357.568 21.3379 356.82 22.0215 356.104 22.6074C355.42 23.1608 354.508 23.7956 353.369 24.5117C352.23 25.1953 351.237 25.7812 350.391 26.2695C349.544 26.7253 348.454 27.3112 347.119 28.0273C346.305 28.4505 345.703 28.776 345.312 29.0039L364.404 56.3965L365.918 58.5938C369.727 52.7018 371.826 45.0684 372.217 35.6934C372.249 34.4889 372.184 33.431 372.021 32.5195C371.859 31.5755 371.631 30.7943 371.338 30.1758C371.045 29.5247 370.638 28.9714 370.117 28.5156C369.596 28.0599 369.092 27.7181 368.604 27.4902C368.115 27.2298 367.48 27.0345 366.699 26.9043C365.951 26.7741 365.267 26.6927 364.648 26.6602C364.03 26.6276 363.281 26.6113 362.402 26.6113L362.207 25.8789H364.6C367.139 25.8789 369.743 25.4883 372.412 24.707C375.114 23.9258 377.751 23.1445 380.322 22.3633C382.926 21.582 385.384 21.1914 387.695 21.1914C389.648 21.1914 391.585 21.4193 393.506 21.875C395.426 22.2982 397.298 22.998 399.121 23.9746C400.944 24.9186 402.539 26.0742 403.906 27.4414C405.306 28.8086 406.413 30.5176 407.227 32.5684C408.073 34.5866 408.496 36.8001 408.496 39.209C408.496 44.3197 406.576 48.6816 402.734 52.2949C398.926 55.9082 394.32 57.7148 388.916 57.7148C385.791 57.7148 383.089 56.9499 380.811 55.4199C378.564 53.89 376.807 52.0182 375.537 49.8047C374.626 48.2422 374.658 47.0215 375.635 46.1426C376.351 45.4915 377.067 45.3451 377.783 45.7031C378.174 45.8984 378.418 46.224 378.516 46.6797C379.167 49.7396 380.436 52.2461 382.324 54.1992C384.212 56.1198 386.67 57.0801 389.697 57.0801C393.636 57.0801 396.924 55.3223 399.561 51.8066C402.197 48.291 403.516 44.0918 403.516 39.209ZM341.113 31.4941C338.965 32.7637 337.093 34.0495 335.498 35.3516C333.936 36.6536 332.422 38.1836 330.957 39.9414C329.525 41.6992 328.418 43.7337 327.637 46.0449C326.888 48.3236 326.514 50.8138 326.514 53.5156C326.807 58.0078 328.727 61.8978 332.275 65.1855C335.824 68.4733 340.072 70.1172 345.02 70.1172C352.214 70.1172 358.187 67.5781 362.939 62.5C362.744 62.207 362.435 61.8001 362.012 61.2793C361.589 60.7259 361.198 60.2214 360.84 59.7656C360.514 59.3099 360.205 58.8542 359.912 58.3984L341.113 31.4941ZM344.922 28.418C346.81 27.2135 348.421 26.0905 349.756 25.0488C351.123 23.9746 352.425 22.7702 353.662 21.4355C354.932 20.1009 355.876 18.6686 356.494 17.1387C357.145 15.6087 357.487 13.9974 357.52 12.3047V12.207C357.454 9.34245 356.576 6.91732 354.883 4.93164C353.19 2.91341 350.863 1.9043 347.9 1.9043C344.548 1.9043 341.878 2.97852 339.893 5.12695C337.907 7.27539 336.914 9.70052 336.914 12.4023C336.914 13.9323 337.207 15.4785 337.793 17.041C338.379 18.6035 339.014 19.9219 339.697 20.9961C340.413 22.0378 341.52 23.5677 343.018 25.5859L344.922 28.418ZM436.23 2.19727C435.938 2.19727 435.791 2.06706 435.791 1.80664C435.791 1.54622 435.938 1.41602 436.23 1.41602H447.9L473.193 64.0137L498.389 1.41602H509.033C509.261 1.41602 509.375 1.54622 509.375 1.80664C509.375 2.06706 509.261 2.19727 509.033 2.19727H505.42C504.736 2.19727 504.395 2.53906 504.395 3.22266V68.9941C504.395 69.6777 504.736 70.0195 505.42 70.0195H508.887C509.147 70.0195 509.277 70.1497 509.277 70.4102C509.277 70.6706 509.147 70.8008 508.887 70.8008H494.092C493.864 70.8008 493.75 70.6706 493.75 70.4102C493.75 70.1497 493.864 70.0195 494.092 70.0195H497.705C498.389 70.0195 498.73 69.6777 498.73 68.9941V2.68555L471.094 71.1914H470.312L442.529 2.19727H442.432V68.9941C442.432 69.6777 442.757 70.0195 443.408 70.0195H447.9C448.193 70.0195 448.34 70.1497 448.34 70.4102C448.34 70.6706 448.193 70.8008 447.9 70.8008H436.426C436.133 70.8008 435.986 70.6706 435.986 70.4102C435.986 70.1497 436.133 70.0195 436.426 70.0195H440.625C441.276 70.0195 441.602 69.6777 441.602 68.9941V2.19727H436.23ZM538.672 2.19727C538.411 2.19727 538.281 2.06706 538.281 1.80664C538.281 1.54622 538.411 1.41602 538.672 1.41602H549.17L574.902 70.0195H580.273C580.469 70.0195 580.599 70.0846 580.664 70.2148C580.762 70.3451 580.778 70.4753 580.713 70.6055C580.648 70.7357 580.501 70.8008 580.273 70.8008H563.574C563.314 70.8008 563.184 70.6706 563.184 70.4102C563.184 70.1497 563.314 70.0195 563.574 70.0195H569.189L558.691 41.9922H529.59L519.385 70.0195H524.707C524.935 70.0195 525.081 70.0846 525.146 70.2148C525.244 70.3451 525.244 70.4753 525.146 70.6055C525.081 70.7357 524.935 70.8008 524.707 70.8008H513.184C512.891 70.8008 512.744 70.6706 512.744 70.4102C512.744 70.1497 512.891 70.0195 513.184 70.0195H518.506L529.004 41.2109L543.213 2.19727H538.672ZM543.896 2.58789L529.883 41.2109H558.398L543.896 2.58789ZM581.836 70.8008C581.673 70.8008 581.559 70.7357 581.494 70.6055C581.429 70.4753 581.413 70.3451 581.445 70.2148C581.51 70.0846 581.641 70.0195 581.836 70.0195H586.23C586.914 70.0195 587.256 69.6777 587.256 68.9941V3.22266C587.256 2.53906 586.914 2.19727 586.23 2.19727H581.836C581.543 2.19727 581.396 2.06706 581.396 1.80664C581.396 1.54622 581.543 1.41602 581.836 1.41602H605.908C608.219 1.41602 610.498 1.64388 612.744 2.09961C614.99 2.52279 617.171 3.22266 619.287 4.19922C621.403 5.17578 623.258 6.36393 624.854 7.76367C626.481 9.16341 627.783 10.9212 628.76 13.0371C629.736 15.153 630.225 17.4805 630.225 20.0195C630.225 22.5911 629.769 24.9674 628.857 27.1484C627.946 29.3294 626.709 31.2012 625.146 32.7637C623.584 34.2936 621.761 35.612 619.678 36.7188C617.627 37.793 615.446 38.5905 613.135 39.1113C610.824 39.6322 608.464 39.8926 606.055 39.8926H592.92V68.9941C592.92 69.6777 593.262 70.0195 593.945 70.0195H598.535C598.73 70.0195 598.828 70.1497 598.828 70.4102C598.828 70.6706 598.73 70.8008 598.535 70.8008H581.836ZM624.316 20.0195C624.316 16.7969 623.796 13.9974 622.754 11.6211C621.745 9.21224 620.345 7.35677 618.555 6.05469C616.764 4.72005 614.811 3.74349 612.695 3.125C610.612 2.50651 608.35 2.19727 605.908 2.19727H593.945C593.262 2.19727 592.92 2.53906 592.92 3.22266V39.1113H606.055C608.626 39.0788 610.986 38.7044 613.135 37.9883C615.283 37.2396 617.204 36.1328 618.896 34.668C620.622 33.2031 621.956 31.2174 622.9 28.7109C623.844 26.2044 624.316 23.3073 624.316 20.0195ZM650.586 1.41602C650.846 1.41602 650.977 1.54622 650.977 1.80664C650.977 2.06706 650.846 2.19727 650.586 2.19727H646.191C645.508 2.19727 645.166 2.53906 645.166 3.22266V69.3848L686.377 1.41602H698.096C698.389 1.41602 698.535 1.54622 698.535 1.80664C698.535 2.06706 698.389 2.19727 698.096 2.19727H693.506C692.822 2.19727 692.48 2.53906 692.48 3.22266V68.9941C692.48 69.6777 692.822 70.0195 693.506 70.0195H698.096C698.389 70.0195 698.535 70.1497 698.535 70.4102C698.535 70.6706 698.389 70.8008 698.096 70.8008H681.396C681.169 70.8008 681.055 70.6706 681.055 70.4102C681.055 70.1497 681.169 70.0195 681.396 70.0195H685.791C686.442 70.0195 686.768 69.6777 686.768 68.9941V2.19727L645.166 70.8008H633.887C633.626 70.8008 633.496 70.6706 633.496 70.4102C633.496 70.1497 633.626 70.0195 633.887 70.0195H638.477C639.16 70.0195 639.502 69.6777 639.502 68.9941V3.22266C639.502 2.53906 639.16 2.19727 638.477 2.19727H633.496C633.301 2.19727 633.203 2.06706 633.203 1.80664C633.203 1.54622 633.301 1.41602 633.496 1.41602H650.586ZM757.373 70.0195C757.568 70.0195 757.682 70.0846 757.715 70.2148C757.78 70.3451 757.78 70.4753 757.715 70.6055C757.65 70.7357 757.536 70.8008 757.373 70.8008H740.674C740.479 70.8008 740.381 70.6706 740.381 70.4102C740.381 70.1497 740.479 70.0195 740.674 70.0195H745.264C745.915 70.0195 746.24 69.6777 746.24 68.9941V33.9844H735.84C733.171 34.375 730.664 36.0352 728.32 38.9648C725.977 41.8945 723.649 46.2402 721.338 52.002C717.692 59.4564 714.681 64.5671 712.305 67.334C709.961 70.1009 707.65 71.4844 705.371 71.4844C704.72 71.4844 704.118 71.3216 703.564 70.9961C703.174 70.7357 703.044 70.5078 703.174 70.3125C703.239 70.2474 703.337 70.2474 703.467 70.3125C704.215 70.7031 704.818 70.8659 705.273 70.8008C705.566 70.7682 705.892 70.5566 706.25 70.166C706.608 69.7754 707.015 69.1732 707.471 68.3594C707.959 67.513 708.431 66.6667 708.887 65.8203C709.342 64.9414 709.88 63.8021 710.498 62.4023C711.149 61.0026 711.719 59.7656 712.207 58.6914C712.695 57.5846 713.314 56.1686 714.062 54.4434C714.844 52.6855 715.479 51.2695 715.967 50.1953C720.85 41.276 726.318 35.8724 732.373 33.9844C729.704 33.8216 727.181 33.3496 724.805 32.5684C722.428 31.7546 720.264 30.6803 718.311 29.3457C716.39 27.9785 714.86 26.2533 713.721 24.1699C712.614 22.0866 712.061 19.7591 712.061 17.1875C712.061 14.5182 712.728 12.1419 714.062 10.0586C715.43 7.94271 717.22 6.26628 719.434 5.0293C721.647 3.79232 724.023 2.86458 726.562 2.24609C729.102 1.6276 731.706 1.31836 734.375 1.31836H757.373C757.666 1.31836 757.812 1.44857 757.812 1.70898C757.812 1.9694 757.666 2.09961 757.373 2.09961H752.93C752.279 2.09961 751.953 2.44141 751.953 3.125V68.9941C751.953 69.6777 752.279 70.0195 752.93 70.0195H757.373ZM734.375 33.2031H746.24V3.125C746.24 2.44141 745.915 2.09961 745.264 2.09961H734.375C732.161 2.09961 730.111 2.36003 728.223 2.88086C726.335 3.40169 724.577 4.23177 722.949 5.37109C721.354 6.47786 720.085 8.04036 719.141 10.0586C718.229 12.0768 717.773 14.4531 717.773 17.1875C717.773 19.987 718.197 22.4284 719.043 24.5117C719.922 26.5951 721.126 28.2552 722.656 29.4922C724.219 30.7292 725.977 31.6569 727.93 32.2754C729.883 32.8613 732.031 33.1706 734.375 33.2031Z" fill="var(--fill-0, #A68454)"/>
</svg>
