<svg xmlns="http://www.w3.org/2000/svg" width="110" height="45" viewBox="0 0 110 45" fill="none">
  <path d="M9.82227 5.04395C9.93945 5.04395 9.99805 5.10254 9.99805 5.21973C9.99805 5.33691 9.93945 5.39551 9.82227 5.39551H7.84473C7.53711 5.39551 7.3833 5.54932 7.3833 5.85693V35.6299L25.9282 5.04395H31.2017C31.3335 5.04395 31.3994 5.10254 31.3994 5.21973C31.3994 5.33691 31.3335 5.39551 31.2017 5.39551H29.1362C28.8286 5.39551 28.6748 5.54932 28.6748 5.85693V35.4541C28.6748 35.7617 28.8286 35.9155 29.1362 35.9155H31.2017C31.3335 35.9155 31.3994 35.9741 31.3994 36.0913C31.3994 36.2085 31.3335 36.2671 31.2017 36.2671H23.687C23.5845 36.2671 23.5332 36.2085 23.5332 36.0913C23.5332 35.9741 23.5845 35.9155 23.687 35.9155H25.6646C25.9575 35.9155 26.104 35.7617 26.104 35.4541V5.39551L7.3833 36.2671H2.30762C2.19043 36.2671 2.13184 36.2085 2.13184 36.0913C2.13184 35.9741 2.19043 35.9155 2.30762 35.9155H4.37305C4.68066 35.9155 4.83447 35.7617 4.83447 35.4541V5.85693C4.83447 5.54932 4.68066 5.39551 4.37305 5.39551H2.13184C2.04395 5.39551 2 5.33691 2 5.21973C2 5.10254 2.04395 5.04395 2.13184 5.04395H9.82227Z" fill="#A68454"/>
  <path d="M70.5547 22.0508C70.5547 19.7803 69.9028 17.8979 68.5991 16.4038C67.2954 14.9097 65.5962 14.1626 63.5015 14.1626C61.729 14.1626 60.1616 14.6899 58.7993 15.7446C57.4517 16.7993 56.7778 18.103 56.7778 19.6558C56.7778 20.5933 56.7266 21.5747 56.624 22.6001C56.5361 23.6255 56.2578 24.9878 55.7891 26.687C55.335 28.3862 54.7197 29.8877 53.9434 31.1914C55.5254 33.3008 57.1733 34.8389 58.8872 35.8057C60.6157 36.7725 62.3149 37.2559 63.9849 37.2559C64.6587 37.2559 65.2739 37.1021 65.8306 36.7944C66.4019 36.5015 66.856 36.106 67.1929 35.6079C67.5444 35.1099 67.8228 34.6118 68.0278 34.1138C68.2476 33.6157 68.416 33.103 68.5332 32.5757C68.6357 32.0483 68.8921 31.748 69.3022 31.6748C69.6831 31.5869 69.9614 31.7261 70.1372 32.0923C70.2983 32.4292 70.2764 32.8467 70.0713 33.3447C69.5 34.7217 68.3721 35.8423 66.6875 36.7065C65.0176 37.5854 63.2451 38.0249 61.3701 38.0249C60.1104 38.0249 58.7041 37.5854 57.1514 36.7065C55.6133 35.8276 54.1265 34.5679 52.6909 32.9272C50.3472 35.6958 47.1099 37.0801 42.979 37.0801C41.939 37.0801 40.8696 36.8823 39.771 36.4868C38.6724 36.0913 37.647 35.542 36.6948 34.8389C35.7573 34.1211 34.9883 33.1982 34.3877 32.0703C33.7871 30.9424 33.4868 29.7192 33.4868 28.4009V28.313C33.4868 27.4048 33.6553 26.5332 33.9922 25.6982C34.3438 24.8633 34.7686 24.1382 35.2666 23.5229C35.7646 22.9077 36.4238 22.2778 37.2441 21.6333C38.0645 20.9741 38.8188 20.4248 39.5073 19.9854C40.2104 19.5459 41.0601 19.0259 42.0562 18.4253C42.144 18.3813 42.21 18.3447 42.2539 18.3154L41.2212 16.7773C40.269 15.4883 39.5806 14.353 39.1558 13.3716C38.7456 12.3901 38.5918 11.3794 38.6943 10.3394C38.8408 8.87451 39.5439 7.62207 40.8037 6.58203C42.0635 5.52734 43.7041 5 45.7256 5C47.4395 5 48.8677 5.52002 50.0103 6.56006C51.1675 7.58545 51.7461 8.77197 51.7461 10.1196C51.7461 10.5884 51.6802 11.0352 51.5483 11.46C51.4165 11.8848 51.248 12.2729 51.043 12.6245C50.8525 12.9614 50.5815 13.3057 50.23 13.6572C49.8784 14.0088 49.5415 14.3164 49.2192 14.5801C48.9116 14.8291 48.5015 15.1147 47.9888 15.437C47.4761 15.7446 47.0293 16.0083 46.6484 16.228C46.2676 16.4331 45.7769 16.6968 45.1763 17.019C44.8101 17.2095 44.5391 17.356 44.3633 17.4585L52.9546 29.7852L53.6357 30.7739C55.3496 28.1226 56.2944 24.6875 56.4702 20.4688C56.4849 19.9268 56.4556 19.4507 56.3823 19.0405C56.3091 18.6157 56.2065 18.2642 56.0747 17.9858C55.9429 17.6929 55.7598 17.4438 55.5254 17.2388C55.291 17.0337 55.064 16.8799 54.8442 16.7773C54.6245 16.6602 54.3389 16.5723 53.9873 16.5137C53.6504 16.4551 53.3428 16.4185 53.0645 16.4038C52.7861 16.3892 52.4492 16.3818 52.0537 16.3818L51.9658 16.0522H53.0425C54.1851 16.0522 55.3569 15.8765 56.5581 15.5249C57.7739 15.1733 58.9604 14.8218 60.1177 14.4702C61.2896 14.1187 62.3955 13.9429 63.4355 13.9429C64.3145 13.9429 65.186 14.0454 66.0503 14.2505C66.9146 14.4409 67.7568 14.7559 68.5771 15.1953C69.3975 15.6201 70.1152 16.1401 70.7305 16.7554C71.3604 17.3706 71.8584 18.1396 72.2246 19.0625C72.6055 19.9707 72.7959 20.9668 72.7959 22.0508C72.7959 24.3506 71.9316 26.3135 70.2031 27.9395C68.4893 29.5654 66.4165 30.3784 63.9849 30.3784C62.5786 30.3784 61.3628 30.0342 60.3374 29.3457C59.3267 28.6572 58.5356 27.8149 57.9644 26.8188C57.5542 26.1157 57.5688 25.5664 58.0083 25.1709C58.3306 24.8779 58.6528 24.812 58.9751 24.9731C59.1509 25.061 59.2607 25.2075 59.3047 25.4126C59.5977 26.7896 60.1689 27.9175 61.0186 28.7964C61.8682 29.6606 62.9741 30.0928 64.3364 30.0928C66.1089 30.0928 67.5884 29.3018 68.7749 27.7197C69.9614 26.1377 70.5547 24.248 70.5547 22.0508ZM42.4736 18.5791C41.5068 19.1504 40.6646 19.729 39.9468 20.3149C39.2437 20.9009 38.5625 21.5894 37.9033 22.3804C37.2588 23.1714 36.7607 24.0869 36.4092 25.127C36.0723 26.1523 35.9038 27.2729 35.9038 28.4888C36.0356 30.5103 36.8999 32.2607 38.4966 33.7402C40.0933 35.2197 42.0049 35.9595 44.2314 35.9595C47.4688 35.9595 50.1567 34.8169 52.2954 32.5317C52.2075 32.3999 52.0684 32.2168 51.8779 31.9824C51.6875 31.7334 51.5117 31.5063 51.3506 31.3013C51.2041 31.0962 51.0649 30.8911 50.9331 30.686L42.4736 18.5791ZM44.1875 17.1948C45.0371 16.6528 45.7622 16.1475 46.3628 15.6787C46.978 15.1953 47.564 14.6533 48.1206 14.0527C48.6919 13.4521 49.1167 12.8076 49.395 12.1191C49.688 11.4307 49.8418 10.7056 49.8564 9.94385V9.8999C49.8271 8.61084 49.4316 7.51953 48.6699 6.62598C47.9082 5.71777 46.8608 5.26367 45.5278 5.26367C44.019 5.26367 42.8179 5.74707 41.9243 6.71387C41.0308 7.68066 40.584 8.77197 40.584 9.98779C40.584 10.6763 40.7158 11.3721 40.9795 12.0752C41.2432 12.7783 41.5288 13.3716 41.8364 13.855C42.1587 14.3237 42.6567 15.0122 43.3306 15.9204L44.1875 17.1948Z" fill="#A68454"/>
  <path d="M74.9053 5.39551C74.7734 5.39551 74.7075 5.33691 74.7075 5.21973C74.7075 5.10254 74.7734 5.04395 74.9053 5.04395H80.1567L91.5386 33.2129L102.876 5.04395H107.667C107.769 5.04395 107.82 5.10254 107.82 5.21973C107.82 5.33691 107.769 5.39551 107.667 5.39551H106.041C105.733 5.39551 105.579 5.54932 105.579 5.85693V35.4541C105.579 35.7617 105.733 35.9155 106.041 35.9155H107.601C107.718 35.9155 107.776 35.9741 107.776 36.0913C107.776 36.2085 107.718 36.2671 107.601 36.2671H100.943C100.84 36.2671 100.789 36.2085 100.789 36.0913C100.789 35.9741 100.84 35.9155 100.943 35.9155H102.569C102.876 35.9155 103.03 35.7617 103.03 35.4541V5.61523L90.5938 36.4429H90.2422L77.7397 5.39551H77.6958V35.4541C77.6958 35.7617 77.8423 35.9155 78.1353 35.9155H80.1567C80.2886 35.9155 80.3545 35.9741 80.3545 36.0913C80.3545 36.2085 80.2886 36.2671 80.1567 36.2671H74.9932C74.8613 36.2671 74.7954 36.2085 74.7954 36.0913C74.7954 35.9741 74.8613 35.9155 74.9932 35.9155H76.8828C77.1758 35.9155 77.3223 35.7617 77.3223 35.4541V5.39551H74.9053Z" fill="#A68454"/>
</svg>
