<svg preserveAspectRatio="none" width="100%" height="100%" overflow="visible" style="display: block;" viewBox="0 0 59.9611 50.976" fill="none" xmlns="http://www.w3.org/2000/svg">
<g id="Logo container">
<g id="Vector">
<path d="M56.2891 35.208V0.755997H59.9611V34.884C59.9611 39.42 59.3311 42.948 58.0711 45.468C56.8111 47.988 54.8851 49.824 52.2931 50.976L52.1311 50.706C53.5711 49.698 54.6151 47.988 55.2631 45.576C55.9471 43.2 56.2891 39.744 56.2891 35.208Z" fill="var(--fill-0, black)"/>
<path d="M44.6648 38.556L39.5888 33.048C38.1128 35.244 36.5108 36.846 34.7828 37.854C33.0908 38.826 31.0748 39.312 28.7348 39.312C26.3948 39.312 24.3428 38.898 22.5788 38.07C20.8148 37.206 19.4468 36.018 18.4748 34.506C17.5028 32.958 17.0168 31.176 17.0168 29.16C17.0168 26.676 17.7548 24.48 19.2308 22.572C20.7428 20.628 22.9028 19.098 25.7108 17.982L25.2788 17.496C23.6228 15.696 22.4348 14.076 21.7148 12.636C20.9948 11.16 20.6348 9.648 20.6348 8.1C20.6348 5.652 21.4088 3.69 22.9568 2.214C24.5048 0.738 26.5388 0 29.0588 0C31.5068 0 33.4688 0.684 34.9448 2.052C36.4568 3.384 37.2128 5.166 37.2128 7.398C37.2128 9.414 36.5468 11.286 35.2148 13.014C33.9188 14.742 32.1548 16.182 29.9228 17.334L40.5068 28.836L44.2868 18.792H47.9588L41.3708 29.754L49.4708 38.556H44.6648ZM27.7088 14.958L29.1668 16.524C32.2628 14.472 33.8108 11.556 33.8108 7.776C33.8108 5.724 33.3788 4.14 32.5148 3.024C31.6868 1.872 30.5348 1.296 29.0588 1.296C27.5828 1.296 26.3408 1.854 25.3328 2.97C24.3608 4.05 23.8748 5.49 23.8748 7.29C23.8748 8.514 24.1808 9.738 24.7928 10.962C25.4048 12.15 26.3768 13.482 27.7088 14.958ZM20.5268 28.728C20.5268 31.5 21.3368 33.75 22.9568 35.478C24.6128 37.17 26.7548 38.016 29.3828 38.016C32.9828 38.016 36.0968 36.036 38.7248 32.076L26.5208 18.792C22.5248 20.916 20.5268 24.228 20.5268 28.728Z" fill="var(--fill-0, black)"/>
<path d="M4.158 35.208V0.755997H7.83V34.884C7.83 39.42 7.2 42.948 5.94 45.468C4.68 47.988 2.754 49.824 0.162 50.976L0 50.706C1.44 49.698 2.484 47.988 3.132 45.576C3.816 43.2 4.158 39.744 4.158 35.208Z" fill="var(--fill-0, black)"/>
</g>
</g>
</svg>
