<svg preserveAspectRatio="none" width="100%" height="100%" overflow="visible" style="display: block;" viewBox="0 0 31.0909 26.432" fill="none" xmlns="http://www.w3.org/2000/svg">
<g id="Logo container">
<g id="J&#38;J">
<path d="M2.156 18.256V0.392H4.06V18.088C4.06 20.44 3.73333 22.2693 3.08 23.576C2.42667 24.8827 1.428 25.8347 0.084 26.432L0 26.292C0.746667 25.7693 1.288 24.8827 1.624 23.632C1.97867 22.4 2.156 20.608 2.156 18.256Z" fill="var(--fill-0, black)"/>
<path d="M23.1595 19.992L20.5275 17.136C19.7622 18.2747 18.9315 19.1053 18.0355 19.628C17.1582 20.132 16.1128 20.384 14.8995 20.384C13.6862 20.384 12.6222 20.1693 11.7075 19.74C10.7928 19.292 10.0835 18.676 9.5795 17.892C9.0755 17.0893 8.8235 16.1653 8.8235 15.12C8.8235 13.832 9.20617 12.6933 9.9715 11.704C10.7555 10.696 11.8755 9.90267 13.3315 9.324L13.1075 9.072C12.2488 8.13867 11.6328 7.29867 11.2595 6.552C10.8862 5.78667 10.6995 5.00267 10.6995 4.2C10.6995 2.93067 11.1008 1.91333 11.9035 1.148C12.7062 0.382667 13.7608 0 15.0675 0C16.3368 0 17.3542 0.354667 18.1195 1.064C18.9035 1.75467 19.2955 2.67867 19.2955 3.836C19.2955 4.88133 18.9502 5.852 18.2595 6.748C17.5875 7.644 16.6728 8.39067 15.5155 8.988L21.0035 14.952L22.9635 9.744H24.8675L21.4515 15.428L25.6515 19.992H23.1595ZM14.3675 7.756L15.1235 8.568C16.7288 7.504 17.5315 5.992 17.5315 4.032C17.5315 2.968 17.3075 2.14667 16.8595 1.568C16.4302 0.970666 15.8328 0.672 15.0675 0.672C14.3022 0.672 13.6582 0.961333 13.1355 1.54C12.6315 2.1 12.3795 2.84667 12.3795 3.78C12.3795 4.41467 12.5382 5.04933 12.8555 5.684C13.1728 6.3 13.6768 6.99067 14.3675 7.756ZM10.6435 14.896C10.6435 16.3333 11.0635 17.5 11.9035 18.396C12.7622 19.2733 13.8728 19.712 15.2355 19.712C17.1022 19.712 18.7168 18.6853 20.0795 16.632L13.7515 9.744C11.6795 10.8453 10.6435 12.5627 10.6435 14.896Z" fill="var(--fill-0, black)"/>
<path d="M29.1869 18.256V0.392H31.0909V18.088C31.0909 20.44 30.7643 22.2693 30.1109 23.576C29.4576 24.8827 28.4589 25.8347 27.1149 26.432L27.0309 26.292C27.7776 25.7693 28.3189 24.8827 28.6549 23.632C29.0096 22.4 29.1869 20.608 29.1869 18.256Z" fill="var(--fill-0, black)"/>
</g>
</g>
</svg>
