<svg preserveAspectRatio="none" width="100%" height="100%" overflow="visible" style="display: block;" viewBox="0 0 61.9141 46.7529" fill="none" xmlns="http://www.w3.org/2000/svg">
<g id="Vector">
<path d="M60.376 30.542C60.376 32.7393 60.1481 34.6436 59.6924 36.2549C59.2529 37.8662 58.6263 39.2904 57.8125 40.5273C57.015 41.7806 56.0628 42.8955 54.9561 43.8721C53.8656 44.8486 52.6693 45.8089 51.3672 46.7529L50.9277 46.1426C52.0508 45.1172 52.9378 44.0511 53.5889 42.9443C54.2562 41.8376 54.7607 40.6494 55.1025 39.3799C55.4606 38.1266 55.6885 36.7757 55.7861 35.3271C55.8838 33.8623 55.9326 32.2673 55.9326 30.542V10.1562C55.9326 8.77279 55.9163 7.56836 55.8838 6.54297C55.8512 5.5013 55.8024 4.60612 55.7373 3.85742C55.6722 3.09245 55.5908 2.45768 55.4932 1.95312C55.4118 1.44857 55.3223 1.02539 55.2246 0.683594V0.585938H61.084V0.683594C60.9863 1.02539 60.8887 1.44857 60.791 1.95312C60.7096 2.45768 60.6364 3.09245 60.5713 3.85742C60.5062 4.60612 60.4574 5.5013 60.4248 6.54297C60.3923 7.56836 60.376 8.77279 60.376 10.1562V30.542Z" fill="var(--fill-0, black)"/>
<path d="M44.7998 22.4854C44.1976 25.7243 42.9118 28.4587 40.9424 30.6885C42.6025 32.3486 44.3034 33.8867 46.0449 35.3027C47.7865 36.7025 49.4954 37.9232 51.1719 38.9648C52.8646 40.0065 54.4922 40.8203 56.0547 41.4062C57.6172 41.9922 59.0495 42.2852 60.3516 42.2852C60.8724 42.2852 61.3932 42.2363 61.9141 42.1387V42.7002C61.7188 42.7816 61.4583 42.8955 61.1328 43.042C60.8236 43.1885 60.4329 43.3268 59.9609 43.457C59.5052 43.5872 58.96 43.7012 58.3252 43.7988C57.7067 43.8965 56.9987 43.9453 56.2012 43.9453C54.9316 43.9453 53.5563 43.6768 52.0752 43.1396C50.6104 42.6188 49.0885 41.8864 47.5098 40.9424C45.931 40.0146 44.3278 38.9079 42.7002 37.6221C41.0889 36.3363 39.5101 34.9284 37.9639 33.3984C36.5479 34.3587 34.9854 35.0993 33.2764 35.6201C31.5837 36.141 29.7282 36.4014 27.71 36.4014C25.887 36.4014 24.2432 36.1735 22.7783 35.7178C21.3298 35.262 20.1009 34.611 19.0918 33.7646C18.0827 32.9183 17.3014 31.8929 16.748 30.6885C16.2109 29.484 15.9424 28.1331 15.9424 26.6357C15.9424 25.2035 16.2109 23.9339 16.748 22.8271C17.2852 21.7041 17.985 20.695 18.8477 19.7998C19.7266 18.9046 20.7275 18.0908 21.8506 17.3584C22.9736 16.626 24.1211 15.918 25.293 15.2344C24.821 14.0137 24.4548 12.8255 24.1943 11.6699C23.9339 10.5143 23.8037 9.40755 23.8037 8.34961C23.8037 7.0638 24.0072 5.9082 24.4141 4.88281C24.8372 3.84115 25.4069 2.96224 26.123 2.24609C26.8392 1.52995 27.6774 0.976562 28.6377 0.585938C29.6143 0.195312 30.6559 0 31.7627 0C32.5765 0 33.3415 0.113932 34.0576 0.341797C34.7738 0.569661 35.3923 0.911458 35.9131 1.36719C36.4502 1.80664 36.8734 2.36003 37.1826 3.02734C37.4919 3.69466 37.6465 4.46777 37.6465 5.34668C37.6465 6.45345 37.4105 7.44629 36.9385 8.3252C36.4827 9.2041 35.8724 10.0098 35.1074 10.7422C34.3587 11.4746 33.4961 12.1582 32.5195 12.793C31.543 13.4277 30.5339 14.0462 29.4922 14.6484C30.013 15.8691 30.6315 17.1061 31.3477 18.3594C32.0801 19.6126 32.8776 20.8659 33.7402 22.1191C34.6029 23.3561 35.5306 24.5768 36.5234 25.7812C37.5163 26.9857 38.5417 28.1576 39.5996 29.2969C40.3809 28.2389 40.9912 27.0345 41.4307 25.6836C41.8864 24.3327 42.1143 22.8516 42.1143 21.2402C42.1143 19.873 42.0329 18.7337 41.8701 17.8223C41.7236 16.8945 41.569 16.1051 41.4062 15.4541V15.3564H45.8008V15.4541C45.6868 15.8447 45.5973 16.2842 45.5322 16.7725C45.4834 17.2445 45.4264 17.7734 45.3613 18.3594C45.2962 18.929 45.223 19.5638 45.1416 20.2637C45.0602 20.9473 44.9463 21.6878 44.7998 22.4854ZM29.541 34.2041C30.8757 34.2041 32.1452 34.0251 33.3496 33.667C34.5703 33.3089 35.6852 32.7881 36.6943 32.1045C35.5876 30.9326 34.5133 29.7282 33.4717 28.4912C32.43 27.238 31.4535 25.9684 30.542 24.6826C29.6305 23.3805 28.7842 22.0785 28.0029 20.7764C27.238 19.458 26.5706 18.1641 26.001 16.8945C25.236 17.4154 24.5199 17.9606 23.8525 18.5303C23.2015 19.0999 22.6318 19.7266 22.1436 20.4102C21.6553 21.0938 21.2646 21.8424 20.9717 22.6562C20.695 23.4538 20.5566 24.3327 20.5566 25.293C20.5566 26.5625 20.7764 27.7425 21.2158 28.833C21.6715 29.9235 22.2982 30.8675 23.0957 31.665C23.8932 32.4626 24.8372 33.0892 25.9277 33.5449C27.0345 33.9844 28.2389 34.2041 29.541 34.2041ZM27.71 7.05566C27.71 7.99967 27.8158 8.97624 28.0273 9.98535C28.2389 10.9782 28.5319 12.0117 28.9062 13.0859C29.7038 12.5814 30.4443 12.0605 31.1279 11.5234C31.8278 10.9863 32.43 10.4085 32.9346 9.79004C33.4554 9.15527 33.8623 8.47982 34.1553 7.76367C34.4482 7.04753 34.5947 6.25814 34.5947 5.39551C34.5947 4.90723 34.5296 4.4515 34.3994 4.02832C34.2855 3.58887 34.1064 3.20638 33.8623 2.88086C33.6182 2.53906 33.3008 2.27865 32.9102 2.09961C32.5358 1.9043 32.0964 1.80664 31.5918 1.80664C30.2897 1.80664 29.3132 2.27051 28.6621 3.19824C28.0273 4.12598 27.71 5.41178 27.71 7.05566Z" fill="var(--fill-0, black)"/>
<path d="M9.44824 30.542C9.44824 32.7393 9.22038 34.6436 8.76465 36.2549C8.3252 37.8662 7.69857 39.2904 6.88477 40.5273C6.08724 41.7806 5.13509 42.8955 4.02832 43.8721C2.93783 44.8486 1.74154 45.8089 0.439453 46.7529L0 46.1426C1.12305 45.1172 2.01009 44.0511 2.66113 42.9443C3.32845 41.8376 3.83301 40.6494 4.1748 39.3799C4.53288 38.1266 4.76074 36.7757 4.8584 35.3271C4.95605 33.8623 5.00488 32.2673 5.00488 30.542V10.1562C5.00488 8.77279 4.98861 7.56836 4.95605 6.54297C4.9235 5.5013 4.87467 4.60612 4.80957 3.85742C4.74447 3.09245 4.66309 2.45768 4.56543 1.95312C4.48405 1.44857 4.39453 1.02539 4.29688 0.683594V0.585938H10.1562V0.683594C10.0586 1.02539 9.96094 1.44857 9.86328 1.95312C9.7819 2.45768 9.70866 3.09245 9.64355 3.85742C9.57845 4.60612 9.52962 5.5013 9.49707 6.54297C9.46452 7.56836 9.44824 8.77279 9.44824 10.1562V30.542Z" fill="var(--fill-0, black)"/>
</g>
</svg>
